<svg width="123" height="123" viewBox="0 0 123 123" fill="none" xmlns="http://www.w3.org/2000/svg">
<path d="M48.0634 22.5074C48.5795 20.5069 51.4205 20.5069 51.9366 22.5074L59.9584 53.6046C60.1402 54.3094 60.6906 54.8598 61.3954 55.0416L92.4926 63.0634C94.4931 63.5795 94.4931 66.4205 92.4926 66.9366L61.3954 74.9584C60.6906 75.1402 60.1402 75.6906 59.9584 76.3954L51.9366 107.493C51.4205 109.493 48.5795 109.493 48.0634 107.493L40.0416 76.3954C39.8598 75.6906 39.3094 75.1402 38.6046 74.9584L7.50744 66.9366C5.50685 66.4205 5.50686 63.5795 7.50744 63.0634L38.6046 55.0416C39.3094 54.8598 39.8598 54.3094 40.0416 53.6046L48.0634 22.5074Z" fill="#CFF012"/>
<path d="M83.0634 80.5074C83.5795 78.5069 86.4205 78.5069 86.9366 80.5074L89.8318 91.7311C90.0137 92.4359 90.5641 92.9863 91.2689 93.1682L102.493 96.0634C104.493 96.5795 104.493 99.4205 102.493 99.9366L91.2689 102.832C90.5641 103.014 90.0137 103.564 89.8318 104.269L86.9366 115.493C86.4205 117.493 83.5795 117.493 83.0634 115.493L80.1682 104.269C79.9863 103.564 79.4359 103.014 78.7311 102.832L67.5074 99.9366C65.5069 99.4205 65.5069 96.5795 67.5074 96.0634L78.7311 93.1682C79.4359 92.9863 79.9863 92.4359 80.1682 91.7311L83.0634 80.5074Z" fill="#CFF012"/>
<path d="M91.0634 7.50744C91.5795 5.50686 94.4205 5.50686 94.9366 7.50744L98.8571 22.7058C99.039 23.4106 99.5894 23.961 100.294 24.1429L115.493 28.0634C117.493 28.5795 117.493 31.4205 115.493 31.9366L100.294 35.8571C99.5894 36.039 99.039 36.5894 98.8571 37.2942L94.9366 52.4926C94.4205 54.4931 91.5795 54.4931 91.0634 52.4926L87.1429 37.2942C86.961 36.5894 86.4106 36.039 85.7058 35.8571L70.5074 31.9366C68.5069 31.4205 68.5069 28.5795 70.5074 28.0634L85.7058 24.1429C86.4106 23.961 86.961 23.4106 87.1429 22.7058L91.0634 7.50744Z" fill="#CFF012"/>
</svg>
