<svg width="91" height="26" viewBox="0 0 91 26" fill="none" xmlns="http://www.w3.org/2000/svg">
<mask id="mask0_102_37" style="mask-type:luminance" maskUnits="userSpaceOnUse" x="0" y="1" width="26" height="24">
<path d="M25.9338 1.88892H0V24.1111H25.9338V1.88892Z" fill="white"/>
</mask>
<g mask="url(#mask0_102_37)">
<path d="M22.229 1.88892H25.9338L18.5242 16.7037H14.8193L22.229 1.88892Z" fill="white"/>
<path d="M18.5242 16.7036H22.229L25.9338 24.111H22.229L18.5242 16.7036Z" fill="white"/>
<path d="M2.16501 4.05327C3.78588 2.4329 5.7888 1.88892 7.40967 1.88892C9.03053 1.88891 14.8482 1.88892 14.8482 1.88892C14.8482 1.88892 14.8193 16.2408 14.8193 18.5556C14.8193 20.1522 14.0482 21.4184 13.5697 22.0505C13.338 22.3566 13.0465 22.609 12.7433 22.8447L11.1145 24.1111C11.1145 24.1111 11.1377 5.8241 11.1377 5.59262C9.72501 5.59262 8.63143 5.59544 7.78664 5.60387C5.27191 5.62896 3.74079 7.06787 3.71609 9.58183C3.70766 10.44 3.70483 11.5552 3.70483 13C3.70483 13.2315 3.70483 16.2408 3.70483 18.5556C3.70483 20.1522 2.93372 21.4184 2.45522 22.0505C2.22346 22.3566 1.93196 22.609 1.62881 22.8447L0 24.1111C0 24.1111 0 10.9167 0 9.29632C0 7.67595 0.544148 5.67364 2.16501 4.05327Z" fill="white"/>
<path d="M7.40967 16.7037C8.43274 16.7037 9.26209 15.8746 9.26209 14.8519C9.26209 13.8291 8.43274 13 7.40967 13C6.3866 13 5.55725 13.8291 5.55725 14.8519C5.55725 15.8746 6.3866 16.7037 7.40967 16.7037Z" fill="white"/>
</g>
<path d="M29.7711 11.1483L33.0823 2.61401H35.1654L38.4404 11.1483H36.1888L33.7205 3.9742H34.5031L31.9746 11.1483H29.7711ZM31.7819 9.65568V7.94642H36.4898V9.65568H31.7819ZM39.1893 11.1483V5.26216H41.2844V11.1483H39.1893ZM41.2844 7.94642L40.3452 7.15197C40.5779 6.48593 40.887 5.98438 41.2723 5.64734C41.6576 5.31031 42.1592 5.14179 42.7774 5.14179C43.0583 5.14179 43.2991 5.1779 43.4998 5.25012C43.7085 5.32234 43.8851 5.43468 44.0296 5.58716L42.8135 7.21216C42.7492 7.13994 42.657 7.08376 42.5366 7.04364C42.4241 6.99549 42.2958 6.97142 42.1513 6.97142C41.8783 6.97142 41.6655 7.05568 41.5131 7.2242C41.3605 7.38468 41.2844 7.62542 41.2844 7.94642ZM44.4214 11.1483V5.26216H46.5285V11.1483H44.4214ZM45.469 4.57605C45.1559 4.57605 44.8952 4.47172 44.6863 4.26308C44.4777 4.04642 44.3733 3.7776 44.3733 3.4566C44.3733 3.14364 44.4777 2.87882 44.6863 2.66216C44.8952 2.44549 45.1559 2.33716 45.469 2.33716C45.7982 2.33716 46.0631 2.44549 46.2637 2.66216C46.4725 2.87882 46.5767 3.14364 46.5767 3.4566C46.5767 3.7776 46.4725 4.04642 46.2637 4.26308C46.0631 4.47172 45.7982 4.57605 45.469 4.57605ZM35.5747 23.6483L32.3478 19.1946L35.4423 15.114H38.0672L34.5392 19.5436V18.7853L38.1996 23.6483H35.5747ZM30.3972 23.6483V15.114H32.5525V23.6483H30.3972ZM41.0514 23.7807C40.4975 23.7807 40.0039 23.6723 39.5704 23.4557C39.145 23.231 38.8079 22.922 38.559 22.5288C38.3182 22.1276 38.1978 21.6742 38.1978 21.1686V17.7622H40.2928V21.1686C40.2928 21.3291 40.325 21.4696 40.3892 21.5899C40.4535 21.7103 40.5418 21.8026 40.6541 21.8668C40.7666 21.931 40.899 21.9631 41.0514 21.9631C41.2762 21.9631 41.4569 21.8909 41.5932 21.7464C41.7377 21.602 41.81 21.4094 41.81 21.1686V17.7622H43.9051V21.1686C43.9051 21.6822 43.7847 22.1356 43.5438 22.5288C43.303 22.922 42.9659 23.231 42.5324 23.4557C42.1071 23.6723 41.6134 23.7807 41.0514 23.7807ZM44.9744 23.6483V17.7622H47.0695V23.6483H44.9744ZM47.0695 20.4464L46.1303 19.652C46.363 18.9859 46.6721 18.4844 47.0574 18.1473C47.4427 17.8103 47.9445 17.6418 48.5625 17.6418C48.8434 17.6418 49.0842 17.6779 49.2849 17.7501C49.4936 17.8223 49.6702 17.9347 49.8147 18.0872L48.5986 19.7122C48.5345 19.6399 48.4421 19.5838 48.3217 19.5436C48.2094 19.4955 48.0809 19.4714 47.9364 19.4714C47.6634 19.4714 47.4508 19.5557 47.2982 19.7242C47.1456 19.8847 47.0695 20.1254 47.0695 20.4464ZM53.9769 23.6483V20.326C53.9769 20.0532 53.8965 19.8406 53.7361 19.6881C53.5754 19.5276 53.3707 19.4473 53.122 19.4473C52.9534 19.4473 52.8008 19.4835 52.6644 19.5557C52.5359 19.6279 52.4357 19.7282 52.3634 19.8566C52.2912 19.985 52.2551 20.1415 52.2551 20.326L51.4363 19.9409C51.4363 19.4674 51.5405 19.0622 51.7494 18.7251C51.958 18.3801 52.243 18.1152 52.6042 17.9307C52.9733 17.7381 53.3908 17.6418 53.8565 17.6418C54.2818 17.6418 54.659 17.7421 54.9883 17.9427C55.3254 18.1353 55.5903 18.3961 55.783 18.7251C55.9756 19.0541 56.072 19.4273 56.072 19.8446V23.6483H53.9769ZM50.16 23.6483V17.7622H52.2551V23.6483H50.16ZM57.1677 23.6483V17.7622H59.2748V23.6483H57.1677ZM58.2152 17.076C57.9022 17.076 57.6412 16.9717 57.4326 16.7631C57.2239 16.5464 57.1195 16.2776 57.1195 15.9566C57.1195 15.6436 57.2239 15.3788 57.4326 15.1622C57.6412 14.9455 57.9022 14.8372 58.2152 14.8372C58.5443 14.8372 58.8091 14.9455 59.0099 15.1622C59.2185 15.3788 59.323 15.6436 59.323 15.9566C59.323 16.2776 59.2185 16.5464 59.0099 16.7631C58.8091 16.9717 58.5443 17.076 58.2152 17.076ZM62.9518 23.7686C62.4061 23.7686 61.9205 23.6362 61.4949 23.3714C61.0696 23.1066 60.7364 22.7455 60.4955 22.2881C60.2547 21.8226 60.1343 21.297 60.1343 20.7112C60.1343 20.1174 60.2547 19.5878 60.4955 19.1223C60.7364 18.6569 61.0696 18.2958 61.4949 18.039C61.9205 17.7742 62.4061 17.6418 62.9518 17.6418C63.3212 17.6418 63.6583 17.71 63.9633 17.8464C64.2685 17.9748 64.5171 18.1594 64.7098 18.4001C64.9105 18.6409 65.031 18.9137 65.071 19.2186V22.1798C65.031 22.4927 64.9105 22.7696 64.7098 23.0103C64.5171 23.243 64.2685 23.4276 63.9633 23.564C63.6583 23.7004 63.3212 23.7686 62.9518 23.7686ZM63.3974 21.9029C63.7426 21.9029 64.0195 21.7906 64.2282 21.5659C64.4449 21.3412 64.5533 21.0523 64.5533 20.6992C64.5533 20.4665 64.5051 20.2619 64.4088 20.0853C64.3125 19.9088 64.1761 19.7683 63.9994 19.664C63.8308 19.5597 63.6342 19.5075 63.4094 19.5075C63.1848 19.5075 62.984 19.5597 62.8074 19.664C62.6388 19.7683 62.5024 19.9128 62.398 20.0973C62.3016 20.2739 62.2535 20.4745 62.2535 20.6992C62.2535 20.9319 62.3016 21.1406 62.398 21.3251C62.4943 21.5017 62.6309 21.6421 62.8074 21.7464C62.984 21.8507 63.1806 21.9029 63.3974 21.9029ZM64.469 23.6483V22.0714L64.77 20.627L64.469 19.2066V17.7622H66.5279V23.6483H64.469ZM69.0389 23.6483L67.1726 17.7622H69.1954L70.3032 22.0473L69.7011 22.0594L71.0136 17.7622H72.8799L74.1923 22.0594L73.5903 22.0473L74.7101 17.7622H76.7329L74.8666 23.6483H72.9762L71.724 19.5798H72.1936L70.9052 23.6483H69.0389ZM79.7313 23.7686C79.1855 23.7686 78.6999 23.6362 78.2743 23.3714C77.849 23.1066 77.5158 22.7455 77.275 22.2881C77.0342 21.8226 76.9137 21.297 76.9137 20.7112C76.9137 20.1174 77.0342 19.5878 77.275 19.1223C77.5158 18.6569 77.849 18.2958 78.2743 18.039C78.6999 17.7742 79.1855 17.6418 79.7313 17.6418C80.1006 17.6418 80.4377 17.71 80.7427 17.8464C81.0479 17.9748 81.2966 18.1594 81.4892 18.4001C81.69 18.6409 81.8104 18.9137 81.8504 19.2186V22.1798C81.8104 22.4927 81.69 22.7696 81.4892 23.0103C81.2966 23.243 81.0479 23.4276 80.7427 23.564C80.4377 23.7004 80.1006 23.7686 79.7313 23.7686ZM80.1768 21.9029C80.522 21.9029 80.799 21.7906 81.0076 21.5659C81.2243 21.3412 81.3327 21.0523 81.3327 20.6992C81.3327 20.4665 81.2845 20.2619 81.1882 20.0853C81.0919 19.9088 80.9555 19.7683 80.7788 19.664C80.6102 19.5597 80.4137 19.5075 80.1888 19.5075C79.9642 19.5075 79.7635 19.5597 79.5868 19.664C79.4182 19.7683 79.2818 19.9128 79.1774 20.0973C79.0811 20.2739 79.0329 20.4745 79.0329 20.6992C79.0329 20.9319 79.0811 21.1406 79.1774 21.3251C79.2737 21.5017 79.4103 21.6421 79.5868 21.7464C79.7635 21.8507 79.96 21.9029 80.1768 21.9029ZM81.2484 23.6483V22.0714L81.5494 20.627L81.2484 19.2066V17.7622H83.3074V23.6483H81.2484ZM88.3469 23.6483V20.326C88.3469 20.0532 88.2668 19.8406 88.1061 19.6881C87.9456 19.5276 87.7409 19.4473 87.492 19.4473C87.3234 19.4473 87.171 19.4835 87.0344 19.5557C86.9062 19.6279 86.8057 19.7282 86.7334 19.8566C86.6612 19.985 86.625 20.1415 86.625 20.326L85.8063 19.9409C85.8063 19.4674 85.9107 19.0622 86.1193 18.7251C86.3282 18.3801 86.613 18.1152 86.9742 17.9307C87.3436 17.7381 87.761 17.6418 88.2265 17.6418C88.6521 17.6418 89.0293 17.7421 89.3583 17.9427C89.6954 18.1353 89.9603 18.3961 90.153 18.7251C90.3456 19.0541 90.442 19.4273 90.442 19.8446V23.6483H88.3469ZM84.53 23.6483V17.7622H86.625V23.6483H84.53Z" fill="white"/>
</svg>
