<svg width="50" height="50" viewBox="0 0 50 50" fill="none" xmlns="http://www.w3.org/2000/svg">
<path d="M18.3886 13.6051C18.9047 11.6045 21.7457 11.6045 22.2618 13.6051L24.1984 21.1126C24.3802 21.8174 24.9306 22.3678 25.6355 22.5496L33.143 24.4863C35.1436 25.0023 35.1436 27.8434 33.143 28.3595L25.6355 30.2961C24.9306 30.4779 24.3802 31.0283 24.1984 31.7331L22.2618 39.2406C21.7457 41.2412 18.9047 41.2412 18.3886 39.2406L16.452 31.7331C16.2702 31.0283 15.7198 30.4779 15.0149 30.2961L7.50744 28.3595C5.50685 27.8434 5.50685 25.0023 7.50744 24.4863L15.0149 22.5496C15.7198 22.3678 16.2702 21.8174 16.452 21.1126L18.3886 13.6051Z" fill="#CFF012"/>
<path d="M32.7441 36.6865C33.2261 34.818 35.8796 34.818 36.3616 36.6865C36.5314 37.3448 37.0455 37.8589 37.7037 38.0287C39.5722 38.5107 39.5722 41.1641 37.7037 41.6461C37.0455 41.8159 36.5314 42.33 36.3616 42.9883C35.8796 44.8568 33.2261 44.8568 32.7441 42.9883C32.5743 42.33 32.0603 41.8159 31.402 41.6461C29.5335 41.1641 29.5335 38.5107 31.402 38.0287C32.0603 37.8589 32.5743 37.3448 32.7441 36.6865Z" fill="#CFF012"/>
<path d="M35.8683 7.50744C36.3843 5.50685 39.2254 5.50685 39.7415 7.50743L40.0109 8.55202C40.1927 9.25685 40.7431 9.80724 41.448 9.98906L42.4925 10.2585C44.4931 10.7746 44.4931 13.6157 42.4925 14.1317L41.448 14.4012C40.7431 14.583 40.1927 15.1334 40.0109 15.8382L39.7415 16.8828C39.2254 18.8834 36.3843 18.8834 35.8683 16.8828L35.5988 15.8382C35.417 15.1334 34.8666 14.583 34.1618 14.4012L33.1172 14.1317C31.1166 13.6157 31.1166 10.7746 33.1172 10.2585L34.1618 9.98906C34.8666 9.80724 35.417 9.25685 35.5988 8.55202L35.8683 7.50744Z" fill="#CFF012"/>
</svg>
